<mxfile host="app.diagrams.net" agent="Mozilla/5.0 (Windows NT 10.0; Win64; x64; rv:136.0) Gecko/20100101 Firefox/136.0" version="26.1.3">
  <diagram name="Leht-1" id="RkjRNLAnmTQ9xJ8qr-lo">
    <mxGraphModel dx="2074" dy="1168" grid="1" gridSize="10" guides="1" tooltips="1" connect="1" arrows="1" fold="1" page="1" pageScale="1" pageWidth="827" pageHeight="1169" math="0" shadow="0">
      <root>
        <mxCell id="0" />
        <mxCell id="1" parent="0" />
        <mxCell id="2OttGDsC4B0mXit-44Im-21" style="edgeStyle=orthogonalEdgeStyle;rounded=0;orthogonalLoop=1;jettySize=auto;html=1;" edge="1" parent="1" source="2OttGDsC4B0mXit-44Im-1" target="2OttGDsC4B0mXit-44Im-3">
          <mxGeometry relative="1" as="geometry" />
        </mxCell>
        <mxCell id="2OttGDsC4B0mXit-44Im-1" value="Start" style="ellipse;whiteSpace=wrap;html=1;" vertex="1" parent="1">
          <mxGeometry x="40" y="30" width="120" height="80" as="geometry" />
        </mxCell>
        <mxCell id="2OttGDsC4B0mXit-44Im-2" value="End" style="ellipse;whiteSpace=wrap;html=1;" vertex="1" parent="1">
          <mxGeometry x="620" y="800" width="120" height="80" as="geometry" />
        </mxCell>
        <mxCell id="2OttGDsC4B0mXit-44Im-11" style="edgeStyle=orthogonalEdgeStyle;rounded=0;orthogonalLoop=1;jettySize=auto;html=1;" edge="1" parent="1" source="2OttGDsC4B0mXit-44Im-3" target="2OttGDsC4B0mXit-44Im-6">
          <mxGeometry relative="1" as="geometry" />
        </mxCell>
        <mxCell id="2OttGDsC4B0mXit-44Im-3" value="&amp;nbsp;Console.WriteLine(&quot;Sisesta meetodi number&quot;);&lt;br&gt;&amp;nbsp;Console.WriteLine(&quot;----------------------&quot;);&lt;br&gt;&amp;nbsp;Console.WriteLine(&quot;1. ThenBy ja OrderBy&quot;); &lt;br&gt;&amp;nbsp;Console.WriteLine(&quot;2. File writer &quot;); &lt;br&gt;&amp;nbsp;Console.WriteLine(&quot;3. ForLoop piramiid&quot;); &lt;br&gt;&amp;nbsp;Console.WriteLine(&quot;\n\nPalun tee valik numbriga: &quot;);&lt;br&gt;&lt;br&gt;&amp;nbsp;byte metod = byte.Parse(Console.ReadLine());&lt;div&gt;&lt;br/&gt;&lt;/div&gt;" style="rounded=1;whiteSpace=wrap;html=1;" vertex="1" parent="1">
          <mxGeometry x="40" y="140" width="290" height="150" as="geometry" />
        </mxCell>
        <mxCell id="2OttGDsC4B0mXit-44Im-13" style="edgeStyle=orthogonalEdgeStyle;rounded=0;orthogonalLoop=1;jettySize=auto;html=1;exitX=0.5;exitY=1;exitDx=0;exitDy=0;" edge="1" parent="1" source="2OttGDsC4B0mXit-44Im-4" target="2OttGDsC4B0mXit-44Im-7">
          <mxGeometry relative="1" as="geometry" />
        </mxCell>
        <mxCell id="2OttGDsC4B0mXit-44Im-4" value="&amp;nbsp;case 2:&lt;br&gt;&amp;nbsp;&amp;nbsp;&amp;nbsp;&amp;nbsp; textFile();&lt;br&gt;&amp;nbsp;&amp;nbsp;&amp;nbsp;&amp;nbsp; break;" style="rounded=1;whiteSpace=wrap;html=1;" vertex="1" parent="1">
          <mxGeometry x="70" y="420" width="230" height="90" as="geometry" />
        </mxCell>
        <mxCell id="2OttGDsC4B0mXit-44Im-12" style="edgeStyle=orthogonalEdgeStyle;rounded=0;orthogonalLoop=1;jettySize=auto;html=1;exitX=0.5;exitY=1;exitDx=0;exitDy=0;" edge="1" parent="1" source="2OttGDsC4B0mXit-44Im-6" target="2OttGDsC4B0mXit-44Im-4">
          <mxGeometry relative="1" as="geometry" />
        </mxCell>
        <mxCell id="2OttGDsC4B0mXit-44Im-6" value="&amp;nbsp;switch (metod)" style="rounded=1;whiteSpace=wrap;html=1;" vertex="1" parent="1">
          <mxGeometry x="110" y="320" width="150" height="70" as="geometry" />
        </mxCell>
        <mxCell id="2OttGDsC4B0mXit-44Im-14" style="edgeStyle=orthogonalEdgeStyle;rounded=0;orthogonalLoop=1;jettySize=auto;html=1;" edge="1" parent="1" source="2OttGDsC4B0mXit-44Im-7" target="2OttGDsC4B0mXit-44Im-8">
          <mxGeometry relative="1" as="geometry" />
        </mxCell>
        <mxCell id="2OttGDsC4B0mXit-44Im-7" value="&amp;nbsp;public static void textFile()&lt;br&gt;&amp;nbsp;{&lt;br&gt;&lt;br&gt;&amp;nbsp; &amp;nbsp;&lt;br&gt;&amp;nbsp;&amp;nbsp;&amp;nbsp;&amp;nbsp; Console.WriteLine(&quot;Kirjuta file path.&quot;);&lt;br&gt;&amp;nbsp;&amp;nbsp;&amp;nbsp;&amp;nbsp; Console.WriteLine(&quot;For example - C:/Users/opilane/Uus/WriteToFile.txt &quot;);&lt;br&gt;&amp;nbsp;&amp;nbsp;&amp;nbsp;&amp;nbsp; string filePath = Console.ReadLine();" style="rounded=1;whiteSpace=wrap;html=1;" vertex="1" parent="1">
          <mxGeometry x="10" y="560" width="350" height="140" as="geometry" />
        </mxCell>
        <mxCell id="2OttGDsC4B0mXit-44Im-15" style="edgeStyle=orthogonalEdgeStyle;rounded=0;orthogonalLoop=1;jettySize=auto;html=1;" edge="1" parent="1" source="2OttGDsC4B0mXit-44Im-8" target="2OttGDsC4B0mXit-44Im-9">
          <mxGeometry relative="1" as="geometry" />
        </mxCell>
        <mxCell id="2OttGDsC4B0mXit-44Im-17" value="True" style="edgeLabel;html=1;align=center;verticalAlign=middle;resizable=0;points=[];" vertex="1" connectable="0" parent="2OttGDsC4B0mXit-44Im-15">
          <mxGeometry x="-0.3197" y="-3" relative="1" as="geometry">
            <mxPoint as="offset" />
          </mxGeometry>
        </mxCell>
        <mxCell id="2OttGDsC4B0mXit-44Im-16" style="edgeStyle=orthogonalEdgeStyle;rounded=0;orthogonalLoop=1;jettySize=auto;html=1;" edge="1" parent="1" source="2OttGDsC4B0mXit-44Im-8" target="2OttGDsC4B0mXit-44Im-10">
          <mxGeometry relative="1" as="geometry" />
        </mxCell>
        <mxCell id="2OttGDsC4B0mXit-44Im-18" value="false" style="edgeLabel;html=1;align=center;verticalAlign=middle;resizable=0;points=[];" vertex="1" connectable="0" parent="2OttGDsC4B0mXit-44Im-16">
          <mxGeometry x="-0.2371" y="2" relative="1" as="geometry">
            <mxPoint as="offset" />
          </mxGeometry>
        </mxCell>
        <mxCell id="2OttGDsC4B0mXit-44Im-8" value="if(!Directory.Exists(filePath))" style="rounded=1;whiteSpace=wrap;html=1;" vertex="1" parent="1">
          <mxGeometry x="414" y="600" width="150" height="60" as="geometry" />
        </mxCell>
        <mxCell id="2OttGDsC4B0mXit-44Im-20" style="edgeStyle=orthogonalEdgeStyle;rounded=0;orthogonalLoop=1;jettySize=auto;html=1;" edge="1" parent="1" source="2OttGDsC4B0mXit-44Im-9" target="2OttGDsC4B0mXit-44Im-2">
          <mxGeometry relative="1" as="geometry" />
        </mxCell>
        <mxCell id="2OttGDsC4B0mXit-44Im-9" value="&amp;nbsp;&amp;nbsp;&amp;nbsp; Console.WriteLine(&quot;Kirjuta faili text.&quot;);&lt;br&gt;string inputText = Console.ReadLine();&lt;br&gt;File.WriteAllText(filePath, inputText)" style="rounded=1;whiteSpace=wrap;html=1;" vertex="1" parent="1">
          <mxGeometry x="630" y="585" width="180" height="105" as="geometry" />
        </mxCell>
        <mxCell id="2OttGDsC4B0mXit-44Im-19" style="edgeStyle=orthogonalEdgeStyle;rounded=0;orthogonalLoop=1;jettySize=auto;html=1;entryX=0.5;entryY=1;entryDx=0;entryDy=0;" edge="1" parent="1" source="2OttGDsC4B0mXit-44Im-10" target="2OttGDsC4B0mXit-44Im-2">
          <mxGeometry relative="1" as="geometry" />
        </mxCell>
        <mxCell id="2OttGDsC4B0mXit-44Im-10" value="&amp;nbsp; Console.WriteLine(&quot;Error&quot;);" style="rounded=1;whiteSpace=wrap;html=1;" vertex="1" parent="1">
          <mxGeometry x="404" y="890" width="170" height="40" as="geometry" />
        </mxCell>
      </root>
    </mxGraphModel>
  </diagram>
</mxfile>
